<?xml version="1.0" encoding="utf-8"?>
<!-- Generator: Adobe Illustrator 17.0.0, SVG Export Plug-In . SVG Version: 6.00 Build 0)  -->
<!DOCTYPE svg PUBLIC "-//W3C//DTD SVG 1.1//EN" "http://www.w3.org/Graphics/SVG/1.1/DTD/svg11.dtd">
<svg version="1.1" id="图层_1" xmlns="http://www.w3.org/2000/svg" xmlns:xlink="http://www.w3.org/1999/xlink" x="0px" y="0px"
	 width="20px" height="20px" viewBox="0 0 20 20" enable-background="new 0 0 20 20" xml:space="preserve">
<g id="形状_1_拷贝">
	<g>
		<path fill-rule="evenodd" clip-rule="evenodd" fill="#CCCCCC" d="M1,1.003V14h7l2,4l2-4h7V1.003H1z M5.156,8.942
			c-0.69,0-1.25-0.531-1.25-1.187c0-0.655,0.56-1.187,1.25-1.187s1.25,0.531,1.25,1.187C6.406,8.411,5.846,8.942,5.156,8.942z
			 M10,8.942c-0.69,0-1.25-0.531-1.25-1.187C8.75,7.1,9.31,6.569,10,6.569c0.69,0,1.25,0.531,1.25,1.187
			C11.25,8.411,10.69,8.942,10,8.942z M14.844,8.942c-0.69,0-1.25-0.531-1.25-1.187c0-0.655,0.56-1.187,1.25-1.187
			c0.69,0,1.25,0.531,1.25,1.187C16.094,8.411,15.535,8.942,14.844,8.942z"/>
	</g>
</g>
</svg>
