<?xml version="1.0" encoding="utf-8"?>
<!-- Generator: Adobe Illustrator 17.0.0, SVG Export Plug-In . SVG Version: 6.00 Build 0)  -->
<!DOCTYPE svg PUBLIC "-//W3C//DTD SVG 1.1//EN" "http://www.w3.org/Graphics/SVG/1.1/DTD/svg11.dtd">
<svg version="1.1" id="图层_1" xmlns="http://www.w3.org/2000/svg" xmlns:xlink="http://www.w3.org/1999/xlink" x="0px" y="0px"
	 width="300px" height="300px" viewBox="0 0 300 300" enable-background="new 0 0 300 300" xml:space="preserve">
<g id="形状_1">
	<g>
		<path fill-rule="evenodd" clip-rule="evenodd" fill="#CBCBCB" d="M22,35.759v177.952h100.826L150,259.717l27.181-46.006H278
			V35.759H22z M88,140.373c-8.836,0-16-7.002-16-15.637c0-8.636,7.164-15.637,16-15.637c8.836,0,16,7.001,16,15.637
			C104,133.371,96.836,140.373,88,140.373z M150,140.373c-8.836,0-16-7.002-16-15.637c0-8.636,7.164-15.637,16-15.637
			c8.836,0,16,7.001,16,15.637C166,133.371,158.836,140.373,150,140.373z M212.005,140.373c-8.836,0-16-7.002-16-15.637
			c0-8.636,7.164-15.637,16-15.637c8.838,0,16,7.001,16,15.637C228.005,133.371,220.843,140.373,212.005,140.373z"/>
	</g>
</g>
</svg>
