<?xml version="1.0" encoding="utf-8"?>
<!-- Generator: Adobe Illustrator 17.0.0, SVG Export Plug-In . SVG Version: 6.00 Build 0)  -->
<!DOCTYPE svg PUBLIC "-//W3C//DTD SVG 1.1//EN" "http://www.w3.org/Graphics/SVG/1.1/DTD/svg11.dtd">
<svg version="1.1" id="图层_1" xmlns="http://www.w3.org/2000/svg" xmlns:xlink="http://www.w3.org/1999/xlink" x="0px" y="0px"
	 width="300px" height="300px" viewBox="0 0 300 300" enable-background="new 0 0 300 300" xml:space="preserve">
<g id="形状_2">
	<g>
		<path fill-rule="evenodd" clip-rule="evenodd" fill="#CCCCCC" d="M137.865,232.72H42.757V66.281h142.662v47.554
			c4.252-0.955,11.916-3.873,16.398-4.117l-0.547-67.214h-39.628v-7.926H66.534v7.926H26.905v213.993h134.737
			C156.21,252.801,141.947,239.844,137.865,232.72z M169.568,82.132H58.608v23.777h110.959V82.132z M161.642,121.76H58.608v23.777
			h79.257C142.571,137.03,153.681,125.829,161.642,121.76z M58.608,185.166h63.405c0.398-5.896,3.796-18.312,7.926-23.777H58.608
			V185.166z M210.563,118.148c-38.64,0-69.965,30.976-69.965,69.186c0,38.21,31.324,69.187,69.965,69.187
			c38.641,0,69.965-30.976,69.965-69.187C280.527,149.123,249.203,118.148,210.563,118.148z M249.917,193.82h-39.355
			c-3.622,0-6.559-2.904-6.559-6.486v-58.376h13.118v51.89h32.796V193.82z"/>
	</g>
</g>
</svg>
