<?xml version="1.0" encoding="utf-8"?>
<!-- Generator: Adobe Illustrator 17.0.0, SVG Export Plug-In . SVG Version: 6.00 Build 0)  -->
<!DOCTYPE svg PUBLIC "-//W3C//DTD SVG 1.1//EN" "http://www.w3.org/Graphics/SVG/1.1/DTD/svg11.dtd">
<svg version="1.1" id="图层_1" xmlns="http://www.w3.org/2000/svg" xmlns:xlink="http://www.w3.org/1999/xlink" x="0px" y="0px"
	 width="20px" height="20px" viewBox="0 0 20 20" enable-background="new 0 0 20 20" xml:space="preserve">
<g id="形状_2">
	<g>
		<path fill-rule="evenodd" clip-rule="evenodd" fill="#CCCCCC" d="M8,18H2V3h11.088v4.5C13.492,7.41,14.573,7.023,15,7V1h-4V0H4v1
			H0v19h9.825C9.307,19.65,8.388,18.674,8,18z M12,5H3v2h9V5z M10,9H3v2h5C8.448,10.195,9.242,9.385,10,9z M3.018,13l0.014,2.016
			L7,15c0,0-0.141-0.328-0.141-1.016C6.859,13.469,7,13,7,13H3.018z M14.51,9.002c-3.039,0-5.503,2.463-5.503,5.5
			s2.464,5.5,5.503,5.5c3.039,0,5.503-2.462,5.503-5.5S17.549,9.002,14.51,9.002z M17.605,15.017H14.51
			c-0.285,0-0.516-0.231-0.516-0.516V9.861h1.032v4.125h2.579V15.017z"/>
	</g>
</g>
</svg>
